<?xml version="1.0" standalone="no"?>
<!DOCTYPE svg PUBLIC "-//W3C//DTD SVG 20010904//EN"
 "http://www.w3.org/TR/2001/REC-SVG-20010904/DTD/svg10.dtd">
<svg version="1.0" xmlns="http://www.w3.org/2000/svg"
 width="1273.000000pt" height="1280.000000pt" viewBox="0 0 1273.000000 1280.000000"
 preserveAspectRatio="xMidYMid meet">
<metadata>
Created by potrace 1.15, written by Peter Selinger 2001-2017
</metadata>
<g transform="translate(0.000000,1280.000000) scale(0.100000,-0.100000)"
fill="#000000" stroke="none">
<path d="M2090 12794 c-14 -2 -56 -9 -95 -15 -266 -41 -535 -188 -719 -391
-193 -214 -295 -447 -331 -758 l-5 -45 -103 -2 c-131 -2 -233 -28 -362 -93
-223 -111 -381 -303 -446 -546 -30 -107 -32 -316 -5 -419 22 -83 81 -214 127
-282 112 -163 292 -291 486 -345 104 -29 334 -31 433 -4 74 20 209 81 266 120
l39 26 826 -826 826 -826 51 93 c158 290 354 553 590 792 l116 118 -505 506
c-277 278 -499 507 -493 510 29 11 136 80 201 130 227 173 387 426 459 728 25
105 31 358 10 476 -44 260 -170 502 -356 689 -175 174 -396 292 -650 345 -72
16 -309 28 -360 19z"/>
<path d="M10619 12791 c-505 -53 -931 -399 -1083 -881 -75 -238 -75 -523 1
-764 73 -232 249 -483 433 -617 33 -24 60 -46 60 -49 0 -3 -254 -259 -564
-569 l-565 -565 91 -95 c243 -257 469 -572 608 -851 18 -36 34 -67 37 -70 2
-2 356 348 786 778 l782 782 50 -51 c103 -105 261 -196 410 -235 106 -28 323
-26 428 4 296 85 513 299 604 599 23 77 26 106 27 228 1 154 -15 232 -73 359
-108 239 -332 421 -590 480 -34 8 -65 17 -67 19 -3 2 1 57 8 120 26 255 -35
531 -167 757 -90 154 -244 318 -390 415 -233 155 -552 234 -826 206z"/>
<path d="M6060 10014 c-19 -2 -82 -9 -140 -15 -58 -6 -170 -24 -250 -39 -1328
-262 -2369 -1305 -2610 -2617 -66 -358 -69 -777 -9 -1133 107 -632 402 -1221
851 -1695 90 -96 95 -103 117 -180 75 -267 235 -573 429 -824 139 -180 418
-432 609 -548 l52 -32 3 348 3 348 30 49 c36 59 114 104 180 104 59 0 136 -42
171 -92 l29 -41 5 -461 5 -460 60 -18 c33 -10 90 -27 127 -37 l67 -19 3 487 3
488 30 49 c36 59 114 104 180 104 59 0 136 -42 171 -92 l29 -41 3 -529 3 -528
129 0 129 0 3 518 3 519 30 49 c36 59 114 104 180 104 59 0 136 -42 171 -92
l29 -41 3 -499 c2 -384 5 -498 15 -498 15 0 183 45 219 59 l27 10 3 454 3 454
30 49 c36 59 114 104 180 104 59 0 136 -42 171 -92 l29 -41 3 -364 c2 -247 6
-363 13 -363 16 0 173 104 269 178 117 91 306 277 403 397 221 274 376 582
467 927 27 104 30 110 97 185 340 387 589 858 712 1348 72 288 96 483 96 795
0 375 -43 656 -152 995 -177 550 -513 1063 -942 1439 -513 449 -1092 714
-1779 812 -101 14 -606 28 -692 18z m-848 -2207 c464 -121 788 -536 788 -1010
0 -182 -40 -345 -121 -496 -145 -270 -374 -448 -676 -528 -83 -22 -120 -26
-243 -26 -157 0 -247 14 -367 59 -346 129 -590 414 -668 779 -21 95 -24 299
-6 393 82 431 418 765 854 848 111 21 318 12 439 -19z m2644 18 c345 -61 633
-282 780 -601 87 -188 116 -432 75 -631 -60 -292 -211 -516 -455 -677 -414
-274 -963 -218 -1315 135 -412 411 -410 1074 3 1484 158 156 384 268 601 298
73 10 230 6 311 -8z"/>
<path d="M8986 4044 c-115 -316 -345 -687 -573 -924 l-53 -55 643 -643 c493
-493 640 -645 632 -656 -6 -7 -31 -40 -57 -72 -117 -145 -189 -377 -175 -567
19 -253 140 -480 337 -632 233 -179 547 -225 829 -119 190 71 364 228 456 412
37 74 69 165 80 231 7 40 9 43 34 37 67 -17 318 -18 412 -2 638 104 1095 664
1066 1303 -14 317 -133 594 -352 822 -381 396 -959 501 -1454 265 -62 -30
-143 -75 -180 -101 -131 -94 -260 -227 -334 -345 -23 -37 -44 -67 -47 -68 -3
0 -280 275 -615 610 -335 336 -610 610 -610 610 0 0 -18 -48 -39 -106z"/>
<path d="M3099 3548 l-585 -590 -95 64 c-418 283 -975 286 -1399 7 -279 -184
-475 -476 -547 -813 -25 -114 -24 -370 0 -486 38 -178 94 -313 192 -461 196
-295 508 -492 867 -549 76 -12 345 -8 416 6 29 6 32 4 32 -19 0 -40 39 -156
81 -238 208 -414 725 -586 1138 -380 171 85 312 223 393 386 102 201 116 463
37 679 -89 244 -297 445 -539 520 -30 10 -62 20 -70 22 -9 3 227 246 662 682
l677 677 -55 60 c-104 115 -203 241 -289 370 -93 139 -244 436 -291 573 -16
45 -31 81 -34 80 -3 -1 -269 -266 -591 -590z"/>
</g>
</svg>
