<?xml version="1.0" standalone="no"?>
<!DOCTYPE svg PUBLIC "-//W3C//DTD SVG 20010904//EN"
 "http://www.w3.org/TR/2001/REC-SVG-20010904/DTD/svg10.dtd">
<svg version="1.0" xmlns="http://www.w3.org/2000/svg"
 width="225.000000pt" height="225.000000pt" viewBox="0 0 225.000000 225.000000"
 preserveAspectRatio="xMidYMid meet">

<g transform="translate(0.000000,225.000000) scale(0.100000,-0.100000)"
fill="#000000" stroke="none">
<path d="M950 2235 c-458 -72 -812 -401 -920 -855 -97 -412 60 -867 393 -1135
126 -102 317 -190 492 -226 80 -17 311 -17 405 0 509 91 867 483 922 1009 14
131 2 277 -32 401 -26 91 -103 258 -159 340 -233 342 -680 532 -1101 466z
m-187 -353 c25 -10 237 -322 237 -349 0 -16 -22 -39 -77 -81 l-78 -58 0 -55
c1 -113 139 -334 279 -447 99 -79 122 -81 212 -17 99 71 99 71 232 -110 137
-189 138 -194 53 -259 -69 -53 -88 -62 -162 -71 -107 -13 -239 24 -354 100
-179 117 -437 455 -534 696 -47 119 -61 184 -61 294 0 171 30 240 139 317 67
47 81 52 114 40z"/>
</g>
</svg>
